<?xml version="1.0" encoding="utf-8"?>
<!-- Generator: Adobe Illustrator 21.0.2, SVG Export Plug-In . SVG Version: 6.00 Build 0)  -->
<svg version="1.1" id="Layer_1" xmlns="http://www.w3.org/2000/svg" xmlns:xlink="http://www.w3.org/1999/xlink" x="0px" y="0px"
	 viewBox="0 0 30.8 26" style="enable-background:new 0 0 30.8 26;" xml:space="preserve">
<path d="M4.2,26c-0.3,0-0.7-0.2-0.9-0.5c-0.2-0.4-0.2-0.9,0.1-1.2c1.2-1.3,2-2.8,2.4-4.5L6,19.6l-0.8-0.5c-0.5-0.3-0.8-0.6-1.2-0.8
	c-1.6-1.2-2.7-2.5-3.3-4C-0.4,11.6-0.2,9,1.3,6.5C2.8,4.2,5,2.5,8.1,1.3C10.5,0.5,13,0,15.4,0c0,0,0,0,0,0c2.3,0,4.6,0.4,6.7,1.1
	c3,1,5.2,2.5,6.9,4.7c2.5,3.3,2.3,7.5-0.4,10.7c-2,2.3-4.8,3.9-8.5,4.8c-2.2,0.5-4.4,0.6-7,0.4c-0.5,0-0.9,0.3-0.9,0.3
	C10,23.9,7.4,25.2,4.5,26C4.4,26,4.3,26,4.2,26z M15.4,2C13.2,2,11,2.4,8.8,3.2C6.1,4.2,4.3,5.6,3,7.6c-1.2,1.9-1.4,3.8-0.5,5.8
	c0.5,1.2,1.4,2.3,2.7,3.3c0.3,0.3,0.7,0.5,1,0.7l1.4,1C8,18.6,8.2,19,8.1,19.4l-0.2,0.9c-0.2,1-0.6,1.9-1.1,2.7
	c1.5-0.7,2.9-1.5,4.2-2.6c0.3-0.3,1.2-0.9,2.4-0.8c2.3,0.2,4.4,0.1,6.4-0.4c3.2-0.8,5.7-2.1,7.4-4.1c2.1-2.4,2.2-5.6,0.3-8.1
	c-1.4-1.8-3.3-3.2-5.9-4C19.6,2.4,17.5,2,15.4,2z"/>
<path d="M9.4,12.9c-1.2,0-2.2-1-2.2-2.2s1-2.2,2.2-2.2s2.2,1,2.2,2.2S10.6,12.9,9.4,12.9z M9.4,9.6c-0.6,0-1.2,0.5-1.2,1.2
	s0.5,1.2,1.2,1.2c0.6,0,1.2-0.5,1.2-1.2S10.1,9.6,9.4,9.6z"/>
<path d="M16,12.9c-1.2,0-2.2-1-2.2-2.2s1-2.2,2.2-2.2c1.2,0,2.2,1,2.2,2.2S17.2,12.9,16,12.9z M16,9.6c-0.6,0-1.2,0.5-1.2,1.2
	s0.5,1.2,1.2,1.2c0.6,0,1.2-0.5,1.2-1.2S16.6,9.6,16,9.6z"/>
<path d="M22.5,12.9c-1.2,0-2.2-1-2.2-2.2s1-2.2,2.2-2.2c1.2,0,2.2,1,2.2,2.2S23.7,12.9,22.5,12.9z M22.5,9.6c-0.6,0-1.2,0.5-1.2,1.2
	s0.5,1.2,1.2,1.2c0.6,0,1.2-0.5,1.2-1.2S23.2,9.6,22.5,9.6z"/>
</svg>
