<?xml version="1.0" encoding="utf-8"?>
<!-- Generator: Adobe Illustrator 21.0.2, SVG Export Plug-In . SVG Version: 6.00 Build 0)  -->
<svg version="1.1" id="Isolation_Mode" xmlns="http://www.w3.org/2000/svg" xmlns:xlink="http://www.w3.org/1999/xlink" x="0px"
	 y="0px" viewBox="0 0 137 137" style="enable-background:new 0 0 137 137;" xml:space="preserve" fill="#f6a41d">
<g>
	<g>
		<path d="M100,2.4c-9.6,0-17.6,7.2-19.2,16.4H34.6c-1,0-2,0.6-2.6,1.6s-0.6,2,0,3L64.2,79v49.8H53.4c-1.6,0-3,1.4-3,3s1.4,3,3,3H81
			c1.6,0,3-1.4,3-3s-1.4-3-3-3H70.2V79l22.6-39.2c2.2,1,4.8,1.4,7.2,1.4c10.6,0,19.4-8.8,19.4-19.4S110.8,2.4,100,2.4z M94.6,24.8
			L86,39.6H48.4l-8.6-14.8H94.6z M67.2,72.2L51.8,45.6h30.8L67.2,72.2z M100,35.2c-1.4,0-2.8-0.2-4.2-0.6l6.4-11.2c0.6-1,0.6-2,0-3
			s-1.6-1.6-2.6-1.6H87c1.4-6,6.6-10.4,13-10.4c7.4,0,13.4,6,13.4,13.4S107.4,35.2,100,35.2z"/>
		<path d="M81,136.3H53.4c-2.4,0-4.5-2.1-4.5-4.5s2.1-4.5,4.5-4.5h9.3V79.4l-32-55.3c-0.9-1.4-0.9-3.1,0-4.5
			c0.9-1.4,2.4-2.3,3.9-2.3h45C81.8,7.9,90.4,0.9,100,0.9c11.5,0,20.9,9.4,20.9,20.9s-9.4,20.9-20.9,20.9c-1.7,0-4.1-0.2-6.5-1
			L71.7,79.4v47.9H81c2.4,0,4.5,2.1,4.5,4.5S83.4,136.3,81,136.3z M53.4,130.3c-0.8,0-1.5,0.7-1.5,1.5s0.7,1.5,1.5,1.5H81
			c0.8,0,1.5-0.7,1.5-1.5s-0.7-1.5-1.5-1.5H68.7V78.6l23.5-40.7l1.2,0.6c1.8,0.8,4.1,1.3,6.6,1.3c9.7,0,17.9-8.2,17.9-17.9
			c0-9.9-8-17.9-17.9-17.9c-8.6,0-16.2,6.5-17.7,15.2l-0.2,1.2H34.6c-0.5,0-1,0.3-1.3,0.9c-0.3,0.5-0.3,0.9,0,1.5l32.4,56v51.7H53.4
			z M67.2,75.2l-18-31.1h36L67.2,75.2z M54.4,47.1l12.8,22.1L80,47.1H54.4z M86.9,41.1H47.5L37.2,23.3h60L86.9,41.1z M49.3,38.1
			h35.9L92,26.3H42.4L49.3,38.1z M100,36.7c-1.5,0-3.1-0.2-4.6-0.7l-1.8-0.5l7.3-12.9c0.3-0.6,0.3-1,0-1.5c-0.3-0.5-0.8-0.9-1.3-0.9
			H85.1l0.4-1.8c1.6-6.8,7.5-11.6,14.5-11.6c8.2,0,14.9,6.7,14.9,14.9C114.9,30,108.2,36.7,100,36.7z M98.1,33.6
			c0.6,0.1,1.3,0.1,1.9,0.1c6.6,0,11.9-5.3,11.9-11.9c0-6.6-5.3-11.9-11.9-11.9c-4.9,0-9.1,3-11,7.4h10.6c1.5,0,3,0.9,3.9,2.3
			c0.9,1.5,0.9,3.1,0,4.5L98.1,33.6z"/>
	</g>
</g>
</svg>
