<?xml version="1.0" encoding="utf-8"?>
<!-- Generator: Adobe Illustrator 21.0.2, SVG Export Plug-In . SVG Version: 6.00 Build 0)  -->
<svg version="1.1" id="Layer_1" xmlns="http://www.w3.org/2000/svg" xmlns:xlink="http://www.w3.org/1999/xlink" x="0px" y="0px"
	 viewBox="0 0 57 57" style="enable-background:new 0 0 57 57;" xml:space="preserve" fill="#f6a41d">
<path d="M9.2,37l0.4,1c3.9,11.4,14.5,19,26.3,19c8,0,14.5-2.8,20.4-8.8c1-1,1-2.6,0-3.5c-0.5-0.5-1.1-0.7-1.8-0.7
	c-0.7,0-1.3,0.3-1.8,0.7C48.1,49.4,44,52,35.9,52c-8.7,0-16.5-4.9-20.5-12.8L14.4,37h20.1c1.4,0,2.5-1.1,2.5-2.5S35.9,32,34.5,32
	H13.2l-0.1-1.6C13,29.8,13,29.1,13,28.5c0-0.7,0.1-1.3,0.1-1.9l0.1-1.6h21.2c1.4,0,2.5-1.1,2.5-2.5S35.9,20,34.5,20H14.4l1.1-2.2
	C19.4,9.9,27.2,5,35.9,5c8.2,0,12.2,2.5,16.8,7.2c0.5,0.5,1.1,0.8,1.8,0.8c0.7,0,1.3-0.2,1.8-0.7c1-0.9,1-2.5,0.1-3.5
	C50.5,2.8,44,0,35.9,0C24.2,0,13.6,7.6,9.7,19l-0.4,1H2.5C1.1,20,0,21.1,0,22.5S1.1,25,2.5,25h5.7l-0.1,1.6C8,27.2,8,27.8,8,28.5
	c0,0.6,0,1.3,0.1,1.9L8.2,32H2.5C1.1,32,0,33.1,0,34.5S1.1,37,2.5,37H9.2z"/>
</svg>
