<?xml version="1.0" encoding="utf-8"?>
<!-- Generator: Adobe Illustrator 21.0.2, SVG Export Plug-In . SVG Version: 6.00 Build 0)  -->
<svg version="1.1" id="Layer_1" xmlns="http://www.w3.org/2000/svg" xmlns:xlink="http://www.w3.org/1999/xlink" x="0px" y="0px"
	 viewBox="0 0 178.3 178.3" style="enable-background:new 0 0 178.3 178.3;" xml:space="preserve" fill="#f6a41d">
<g>
	<path d="M89.3,26.8c-8.6,0-15.6,7-15.6,15.6v9.4c-36.6,7-64.5,38.4-66.3,76.6H6.6c-2.2,0-3.9,1.7-3.9,3.9s1.7,3.9,3.9,3.9h165.5
		c2.2,0,3.9-1.7,3.9-3.9s-1.7-3.9-3.9-3.9h-0.9c-1.9-38.1-29.7-69.5-66.3-76.6v-9.4C105,33.8,97.9,26.8,89.3,26.8z M89.3,34.6
		c4.4,0,7.8,3.4,7.8,7.8v8.1c-2.5-0.3-5.2-0.3-7.8-0.3c-2.7,0-5.3,0.2-7.8,0.3v-8.1C81.5,38.1,85,34.6,89.3,34.6z M89.3,58.1
		c39.7,0,72,31.3,74.1,70.3H15.3C17.3,89.3,49.6,58.1,89.3,58.1z M58.1,72.8c-1,0-2,0.3-2.8,1c-7.7,7.2-15.8,24.7-15.8,42.8
		c0,2.2,1.7,3.9,3.9,3.9c2.2,0,3.9-1.7,3.9-3.9c0-15.2,6.9-31.1,13.3-37c1.6-1.4,1.6-3.9,0.2-5.5C60,73.3,59.1,72.9,58.1,72.8z"/>
	<path d="M172.1,138.2H6.6c-3.3,0-5.9-2.6-5.9-5.9c0-3,2.1-5.4,4.9-5.8C6.8,108.3,14,90.9,26,77.1c11.9-13.7,28.1-23.2,45.7-26.9
		v-7.7c0-9.7,7.9-17.6,17.6-17.6S107,32.7,107,42.4v7.7c36.6,7.8,63.5,38.8,66.1,76.3c2.8,0.5,4.9,2.9,4.9,5.8
		C178,135.6,175.4,138.2,172.1,138.2z M6.6,130.4c-1.1,0-1.9,0.8-1.9,1.9s0.8,1.9,1.9,1.9h165.5c1.1,0,1.9-0.8,1.9-1.9
		s-0.8-1.9-1.9-1.9h-2.8l-0.1-1.9c-1.8-37-28.4-67.7-64.6-74.7l-1.6-0.3v-11c0-7.5-6.1-13.6-13.6-13.6c-7.5,0-13.6,6.1-13.6,13.6v11
		l-1.6,0.3c-36.4,7-63,37.7-64.6,74.7l-0.1,1.9H6.6z M165.5,130.4H13.2l0.1-2.1c2.1-40.5,35.5-72.2,76.1-72.2
		c40.5,0,74,31.7,76.1,72.2L165.5,130.4z M17.4,126.4h143.9c-3-37.4-34.2-66.3-71.9-66.3C51.6,60.1,20.4,89,17.4,126.4z M43.4,122.6
		c-3.3,0-5.9-2.6-5.9-5.9c0-18.7,8.5-36.8,16.4-44.3c1.2-1.1,2.7-1.6,4.2-1.6c1.6,0.1,3.1,0.8,4.1,2.1c2.1,2.4,2,6.1-0.4,8.2
		c-6.1,5.6-12.6,21.3-12.6,35.5C49.3,120,46.7,122.6,43.4,122.6z M57.9,74.8c-0.5,0-0.9,0.2-1.3,0.5c-7.3,6.9-15.1,23.7-15.1,41.3
		c0,1.1,0.8,1.9,1.9,1.9s1.9-0.8,1.9-1.9c0-15.8,7.2-32.3,13.9-38.5c0.7-0.7,0.7-1.9,0-2.7C58.8,74.9,58.3,74.8,57.9,74.8
		C58,74.8,57.9,74.8,57.9,74.8z M99.1,52.8l-2.2-0.3c-2.4-0.3-4.9-0.3-7.5-0.3c-2.6,0-5.1,0.1-7.7,0.3l-2.1,0.1V42.4
		c0-5.5,4.3-9.8,9.8-9.8c5.5,0,9.8,4.3,9.8,9.8V52.8z M89.3,36.6c-3.3,0-5.8,2.6-5.8,5.8v6c1.9-0.1,3.9-0.2,5.8-0.2c0,0,0,0,0.1,0
		c1.9,0,3.8,0,5.7,0.1v-5.9C95.1,39.2,92.6,36.6,89.3,36.6z"/>
</g>
<g>
	<path d="M172.7,151.5H6c-1.8,0-3.3-1.5-3.3-3.3v0c0-1.8,1.5-3.3,3.3-3.3h166.6c1.8,0,3.3,1.5,3.3,3.3v0
		C176,150,174.5,151.5,172.7,151.5z"/>
	<path d="M172.7,153.5H6c-2.9,0-5.3-2.4-5.3-5.3s2.4-5.3,5.3-5.3h166.6c2.9,0,5.3,2.4,5.3,5.3S175.6,153.5,172.7,153.5z M6,146.9
		c-0.7,0-1.3,0.6-1.3,1.3s0.6,1.3,1.3,1.3h166.6c0.7,0,1.3-0.6,1.3-1.3s-0.6-1.3-1.3-1.3H6z"/>
</g>
</svg>
