<svg 
 xmlns="http://www.w3.org/2000/svg"
 xmlns:xlink="http://www.w3.org/1999/xlink"
 width="36px" height="30px">
<path fill-rule="evenodd"  fill="rgb(38, 38, 42)"
 d="M6.158,30.000 L29.842,30.000 C33.253,30.000 36.000,27.238 36.000,23.810 L36.000,6.190 C36.000,2.762 33.253,-0.000 29.842,-0.000 L6.158,-0.000 C2.747,-0.000 -0.000,2.762 -0.000,6.190 L-0.000,23.810 C-0.000,27.238 2.747,30.000 6.158,30.000 ZM2.842,23.810 L2.842,18.810 L10.658,13.048 C11.653,12.286 13.073,12.476 13.879,13.429 L25.153,27.143 L6.158,27.143 C4.311,27.143 2.842,25.667 2.842,23.810 ZM29.842,27.143 L28.847,27.143 L20.842,17.381 L24.726,14.190 C25.579,13.476 26.810,13.476 27.710,14.190 L33.158,18.571 L33.158,23.810 C33.158,25.667 31.689,27.143 29.842,27.143 ZM6.158,2.857 L29.842,2.857 C31.689,2.857 33.158,4.333 33.158,6.190 L33.158,14.905 L29.463,11.953 C27.521,10.429 24.868,10.429 22.926,12.000 L18.995,15.190 L16.105,11.619 C14.352,9.476 11.226,9.095 9.000,10.714 L2.842,15.238 L2.842,6.190 C2.842,4.333 4.311,2.857 6.158,2.857 Z"/>
</svg>