<?xml version="1.0" encoding="utf-8"?>
<!-- Generator: Adobe Illustrator 21.0.2, SVG Export Plug-In . SVG Version: 6.00 Build 0)  -->
<svg version="1.1" xmlns="http://www.w3.org/2000/svg" xmlns:xlink="http://www.w3.org/1999/xlink" x="0px" y="0px"
	 viewBox="0 0 51 102" style="enable-background:new 0 0 51 102;" xml:space="preserve">
<style type="text/css">
	.st-available-0{enable-background:new    ;}
	.st-available-1{fill-rule:evenodd;clip-rule:evenodd;fill:#FFFFFF;}
	.st-available-2{fill:#CCCCCC;}
	.st-available-3{fill-rule:evenodd;clip-rule:evenodd;fill:#FFCB75;}
	.st-available-4{fill-rule:evenodd;clip-rule:evenodd;fill:#F5F1E9;}
</style>
<g id="Rectangle_1_copy_105_15_" class="st-available-0">
	<g id="Rectangle_1_copy_105">
		<g>
			<path class="st-available-1" d="M10,101.5c-3.6,0-6.5-2.9-6.5-6.5V7c0-3.6,2.9-6.5,6.5-6.5h31c3.6,0,6.5,2.9,6.5,6.5v88
				c0,3.6-2.9,6.5-6.5,6.5H10z"/>
		</g>
		<g>
			<path class="st-available-2" d="M41,1c3.3,0,6,2.7,6,6v50.5V95c0,3.3-2.7,6-6,6H10c-3.3,0-6-2.7-6-6V56.7V7c0-3.3,2.7-6,6-6H41 M41,0H10
				C6.1,0,3,3.1,3,7v49.7V95c0,3.9,3.1,7,7,7h31c3.9,0,7-3.1,7-7V57.5V7C48,3.1,44.9,0,41,0L41,0z"/>
		</g>
	</g>
</g>
<g id="Rectangle_1_copy_105_14_" class="st-available-0">
	<g id="Rectangle_1_copy_105_34_">
		<g>
			<path class="st-available-3" d="M3,36c-1.7,0-3,1.3-3,3v24c0,1.7,1.3,3,3,3s3-1.3,3-3V39C6,37.3,4.7,36,3,36z"/>
		</g>
	</g>
</g>
<g id="Rectangle_1_copy_105_13_" class="st-available-0">
	<g id="Rectangle_1_copy_105_2_">
		<g>
			<path class="st-available-3" d="M48,36c-1.7,0-3,1.3-3,3v24c0,1.7,1.3,3,3,3s3-1.3,3-3V39C51,37.3,49.7,36,48,36z"/>
		</g>
	</g>
</g>
<g id="Rectangle_1_copy_105_12_" class="st-available-0">
	<g id="Rectangle_1_copy_105_26_">
		<g>
			<path class="st-available-4" d="M36.5,11h-23c-0.8,0-1.5,0.7-1.5,1.5s0.7,1.5,1.5,1.5h23c0.8,0,1.5-0.7,1.5-1.5S37.3,11,36.5,11z"/>
		</g>
	</g>
</g>
<g id="Rectangle_1_copy_105_11_" class="st-available-0">
	<g id="Rectangle_1_copy_105_4_">
		<g>
			<path class="st-available-4" d="M36.5,23h-23c-0.8,0-1.5,0.7-1.5,1.5s0.7,1.5,1.5,1.5h23c0.8,0,1.5-0.7,1.5-1.5S37.3,23,36.5,23z"/>
		</g>
	</g>
</g>
<g id="Rectangle_1_copy_105_10_" class="st-available-0">
	<g id="Rectangle_1_copy_105_16_">
		<g>
			<path class="st-available-4" d="M36.5,34h-23c-0.8,0-1.5,0.7-1.5,1.5s0.7,1.5,1.5,1.5h23c0.8,0,1.5-0.7,1.5-1.5S37.3,34,36.5,34z"/>
		</g>
	</g>
</g>
<g id="Rectangle_1_copy_105_9_" class="st-available-0">
	<g id="Rectangle_1_copy_105_6_">
		<g>
			<path class="st-available-4" d="M36.5,74h-23c-0.8,0-1.5,0.7-1.5,1.5s0.7,1.5,1.5,1.5h23c0.8,0,1.5-0.7,1.5-1.5S37.3,74,36.5,74z"/>
		</g>
	</g>
</g>
<g id="Rectangle_1_copy_105_8_" class="st-available-0">
	<g id="Rectangle_1_copy_105_1_">
		<g>
			<path class="st-available-4" d="M36.5,85h-23c-0.8,0-1.5,0.7-1.5,1.5s0.7,1.5,1.5,1.5h23c0.8,0,1.5-0.7,1.5-1.5S37.3,85,36.5,85z"/>
		</g>
	</g>
</g>
</svg>
