<?xml version="1.0" encoding="utf-8"?>
<!-- Generator: Adobe Illustrator 21.0.2, SVG Export Plug-In . SVG Version: 6.00 Build 0)  -->
<svg version="1.1" id="Layer_1" xmlns="http://www.w3.org/2000/svg" xmlns:xlink="http://www.w3.org/1999/xlink" x="0px" y="0px"
	 viewBox="0 0 51 102" style="enable-background:new 0 0 51 102;" xml:space="preserve">
<style type="text/css">
	.st-check-in-0{enable-background:new    ;}
	.st-check-in-1{fill:#F1991B;}
	.st-check-in-2{fill:#FFFFFF;}
	.st-check-in-3{fill:#F5F1E9;}
</style>
<g id="Rectangle_1_copy_106_15_" class="st-check-in-0">
	<g id="Rectangle_1_copy_106">
		<g>
			<path class="st-check-in-1" d="M41,0H10C6.1,0,3,3.1,3,7v88c0,3.9,3.1,7,7,7h31c3.9,0,7-3.1,7-7V7C48,3.1,44.9,0,41,0z"/>
		</g>
	</g>
</g>
<g id="Rectangle_1_copy_106_14_" class="st-check-in-0">
	<g id="Rectangle_1_copy_106_1_">
		<g>
			<path class="st-check-in-2" d="M3,44c-1.7,0-3,1.3-3,3v24c0,1.7,1.3,3,3,3s3-1.3,3-3V47C6,45.3,4.7,44,3,44z"/>
		</g>
	</g>
</g>
<g id="Rectangle_1_copy_106_13_" class="st-check-in-0">
	<g id="Rectangle_1_copy_106_2_">
		<g>
			<path class="st-check-in-2" d="M48,44c-1.7,0-3,1.3-3,3v24c0,1.7,1.3,3,3,3s3-1.3,3-3V47C51,45.3,49.7,44,48,44z"/>
		</g>
	</g>
</g>
<g id="Rectangle_1_copy_106_12_" class="st-check-in-0">
	<g id="Rectangle_1_copy_106_3_">
		<g>
			<path class="st-check-in-3" d="M36.5,11h-23c-0.8,0-1.5,0.7-1.5,1.5s0.7,1.5,1.5,1.5h23c0.8,0,1.5-0.7,1.5-1.5S37.3,11,36.5,11z"/>
		</g>
	</g>
</g>
<g id="Rectangle_1_copy_106_11_" class="st-check-in-0">
	<g id="Rectangle_1_copy_106_4_">
		<g>
			<path class="st-check-in-3" d="M36.5,22h-23c-0.8,0-1.5,0.7-1.5,1.5l0,0c0,0.8,0.7,1.5,1.5,1.5h23c0.8,0,1.5-0.7,1.5-1.5l0,0
				C38,22.7,37.3,22,36.5,22z"/>
		</g>
	</g>
</g>
<g id="Rectangle_1_copy_106_10_" class="st-check-in-0">
	<g id="Rectangle_1_copy_106_5_">
		<g>
			<path class="st-check-in-3" d="M36.5,33h-23c-0.8,0-1.5,0.7-1.5,1.5s0.7,1.5,1.5,1.5h23c0.8,0,1.5-0.7,1.5-1.5S37.3,33,36.5,33z"/>
		</g>
	</g>
</g>
<g id="Rectangle_1_copy_106_9_" class="st-check-in-0">
	<g id="Rectangle_1_copy_106_6_">
		<g>
			<path class="st-check-in-3" d="M36.5,78h-23c-0.8,0-1.5,0.7-1.5,1.5l0,0c0,0.8,0.7,1.5,1.5,1.5h23c0.8,0,1.5-0.7,1.5-1.5l0,0
				C38,78.6,37.3,78,36.5,78z"/>
		</g>
	</g>
</g>
<g id="Rectangle_1_copy_106_8_" class="st-check-in-0">
	<g id="Rectangle_1_copy_106_7_">
		<g>
			<path class="st-check-in-3" d="M36.5,89h-23c-0.8,0-1.5,0.7-1.5,1.5s0.7,1.5,1.5,1.5h23c0.8,0,1.5-0.7,1.5-1.5S37.3,89,36.5,89z"/>
		</g>
	</g>
</g>
</svg>
