<?xml version="1.0" encoding="utf-8"?>
<!-- Generator: Adobe Illustrator 21.0.2, SVG Export Plug-In . SVG Version: 6.00 Build 0)  -->
<svg version="1.1" xmlns="http://www.w3.org/2000/svg" xmlns:xlink="http://www.w3.org/1999/xlink" x="0px" y="0px"
	 viewBox="0 0 51 102" style="enable-background:new 0 0 51 102;" xml:space="preserve">
<style type="text/css">
	.st-need-waitress-0{enable-background:new    ;}
	.st-need-waitress-1{fill-rule:evenodd;clip-rule:evenodd;fill:#F1991B;}
	.st-need-waitress-2{fill:#FFBABA;}
	.st-need-waitress-3{fill-rule:evenodd;clip-rule:evenodd;fill:#FFCB75;}
	.st-need-waitress-4{fill-rule:evenodd;clip-rule:evenodd;fill:#F5F1E9;}
</style>
<g id="Rectangle_1_copy_105_13_" class="st-need-waitress-0">
	<g id="Rectangle_1_copy_105">
		<g>
			<path class="st-need-waitress-1" d="M10,101c-3.3,0-6-2.7-6-6V7c0-3.3,2.7-6,6-6h31c3.3,0,6,2.7,6,6v88c0,3.3-2.7,6-6,6H10z"/>
		</g>
		<g>
			<path class="st-need-waitress-2" d="M41,2c2.8,0,5,2.2,5,5v50.5V95c0,2.8-2.2,5-5,5H10c-2.8,0-5-2.2-5-5V56.7V7c0-2.8,2.2-5,5-5H41 M41,0H10
				C6.1,0,3,3.1,3,7v49.7V95c0,3.9,3.1,7,7,7h31c3.9,0,7-3.1,7-7V57.5V7C48,3.1,44.9,0,41,0L41,0z"/>
		</g>
	</g>
</g>
<g id="Rectangle_1_copy_105_12_" class="st-need-waitress-0">
	<g id="Rectangle_1_copy_105_1_">
		<g>
			<path class="st-need-waitress-3" d="M3,36c-1.7,0-3,1.3-3,3v24c0,1.7,1.3,3,3,3s3-1.3,3-3V39C6,37.3,4.7,36,3,36z"/>
		</g>
	</g>
</g>
<g id="Rectangle_1_copy_105_11_" class="st-need-waitress-0">
	<g id="Rectangle_1_copy_105_2_">
		<g>
			<path class="st-need-waitress-3" d="M48,36c-1.7,0-3,1.3-3,3v24c0,1.7,1.3,3,3,3s3-1.3,3-3V39C51,37.3,49.7,36,48,36z"/>
		</g>
	</g>
</g>
<g id="Rectangle_1_copy_105_10_" class="st-need-waitress-0">
	<g id="Rectangle_1_copy_105_3_">
		<g>
			<path class="st-need-waitress-4" d="M36.5,9h-23C12.7,9,12,9.7,12,10.5s0.7,1.5,1.5,1.5h23c0.8,0,1.5-0.7,1.5-1.5S37.3,9,36.5,9z"/>
		</g>
	</g>
</g>
<g id="Rectangle_1_copy_105_9_" class="st-need-waitress-0">
	<g id="Rectangle_1_copy_105_4_">
		<g>
			<path class="st-need-waitress-4" d="M36.5,36h-23c-0.8,0-1.5,0.7-1.5,1.5s0.7,1.5,1.5,1.5h23c0.8,0,1.5-0.7,1.5-1.5S37.3,36,36.5,36z"/>
		</g>
	</g>
</g>
<g id="Rectangle_1_copy_106_1_" class="st-need-waitress-0">
	<g id="Rectangle_1_copy_106">
		<g>
			<path class="st-need-waitress-4" d="M36.5,23h-23c-0.8,0-1.5,0.7-1.5,1.5s0.7,1.5,1.5,1.5h23c0.8,0,1.5-0.7,1.5-1.5S37.3,23,36.5,23z"/>
		</g>
	</g>
</g>
<g id="Rectangle_1_copy_105_8_" class="st-need-waitress-0">
	<g id="Rectangle_1_copy_105_5_">
		<g>
			<path class="st-need-waitress-4" d="M36.5,74h-23c-0.8,0-1.5,0.7-1.5,1.5s0.7,1.5,1.5,1.5h23c0.8,0,1.5-0.7,1.5-1.5S37.3,74,36.5,74z"/>
		</g>
	</g>
</g>
<g id="Rectangle_1_copy_105_7_" class="st-need-waitress-0">
	<g id="Rectangle_1_copy_105_6_">
		<g>
			<path class="st-need-waitress-4" d="M36.5,85h-23c-0.8,0-1.5,0.7-1.5,1.5s0.7,1.5,1.5,1.5h23c0.8,0,1.5-0.7,1.5-1.5S37.3,85,36.5,85z"/>
		</g>
	</g>
</g>
</svg>
