<?xml version="1.0" encoding="utf-8"?>
<!-- Generator: Adobe Illustrator 21.0.2, SVG Export Plug-In . SVG Version: 6.00 Build 0)  -->
<svg version="1.1" xmlns="http://www.w3.org/2000/svg" xmlns:xlink="http://www.w3.org/1999/xlink" x="0px" y="0px"
	 viewBox="0 0 51 102" style="enable-background:new 0 0 51 102;" xml:space="preserve">
<style type="text/css">
	.st-booked-0{enable-background:new    ;}
	.st-booked-1{fill-rule:evenodd;clip-rule:evenodd;fill:#828282;}
	.st-booked-2{fill-rule:evenodd;clip-rule:evenodd;fill:#FFFFFF;}
	.st-booked-3{fill-rule:evenodd;clip-rule:evenodd;fill:#F5F1E9;}
</style>
<g id="Rectangle_1_copy_108_15_" class="st-booked-0">
	<g id="Rectangle_1_copy_108">
		<g>
			<path class="st-booked-1" d="M41,0H10C6.1,0,3,3.1,3,7v88c0,3.9,3.1,7,7,7h31c3.9,0,7-3.1,7-7V7C48,3.1,44.9,0,41,0z"/>
		</g>
	</g>
</g>
<g id="Shape_1_1_" class="st-booked-0">
	<g id="Shape_1">
		<g>
			<path class="st-booked-2" d="M25,49c-5.5,0-10,4.5-10,10c0,5.5,4.5,10,10,10s10-4.5,10-10C35,53.5,30.5,49,25,49z M25,67
				c-4.4,0-8-3.6-8-8c0-4.4,3.6-8,8-8s8,3.6,8,8C33,63.4,29.4,67,25,67z M26,58.6v-4.5c0-0.6-0.4-1-1-1s-1,0.4-1,1V59
				c0,0.3,0.1,0.5,0.3,0.7l2.7,2.7c0.2,0.2,0.5,0.3,0.7,0.3s0.5-0.1,0.7-0.3c0.4-0.4,0.4-1,0-1.4L26,58.6z"/>
		</g>
	</g>
</g>
<g id="Rectangle_1_copy_108_14_" class="st-booked-0">
	<g id="Rectangle_1_copy_108_1_">
		<g>
			<path class="st-booked-2" d="M3,44c-1.7,0-3,1.3-3,3v24c0,1.7,1.3,3,3,3s3-1.3,3-3V47C6,45.3,4.7,44,3,44z"/>
		</g>
	</g>
</g>
<g id="Rectangle_1_copy_108_13_" class="st-booked-0">
	<g id="Rectangle_1_copy_108_2_">
		<g>
			<path class="st-booked-2" d="M48,44c-1.7,0-3,1.3-3,3v24c0,1.7,1.3,3,3,3s3-1.3,3-3V47C51,45.3,49.7,44,48,44z"/>
		</g>
	</g>
</g>
<g id="Rectangle_1_copy_108_12_" class="st-booked-0">
	<g id="Rectangle_1_copy_108_3_">
		<g>
			<path class="st-booked-3" d="M36.5,11h-23c-0.8,0-1.5,0.7-1.5,1.5s0.7,1.5,1.5,1.5h23c0.8,0,1.5-0.7,1.5-1.5S37.3,11,36.5,11z"/>
		</g>
	</g>
</g>
<g id="Rectangle_1_copy_108_11_" class="st-booked-0">
	<g id="Rectangle_1_copy_108_4_">
		<g>
			<path class="st-booked-3" d="M36.5,23h-23c-0.8,0-1.5,0.7-1.5,1.5s0.7,1.5,1.5,1.5h23c0.8,0,1.5-0.7,1.5-1.5S37.3,23,36.5,23z"/>
		</g>
	</g>
</g>
<g id="Rectangle_1_copy_108_10_" class="st-booked-0">
	<g id="Rectangle_1_copy_108_5_">
		<g>
			<path class="st-booked-3" d="M36.5,34h-23c-0.8,0-1.5,0.7-1.5,1.5s0.7,1.5,1.5,1.5h23c0.8,0,1.5-0.7,1.5-1.5S37.3,34,36.5,34z"/>
		</g>
	</g>
</g>
<g id="Rectangle_1_copy_108_9_" class="st-booked-0">
	<g id="Rectangle_1_copy_108_6_">
		<g>
			<path class="st-booked-3" d="M36.3,78H13.8c-0.8,0-1.5,0.7-1.5,1.5s0.7,1.5,1.5,1.5h22.5c0.8,0,1.5-0.7,1.5-1.5S37.1,78,36.3,78z"/>
		</g>
	</g>
</g>
<g id="Rectangle_1_copy_108_8_" class="st-booked-0">
	<g id="Rectangle_1_copy_108_7_">
		<g>
			<path class="st-booked-3" d="M36.5,89h-23c-0.8,0-1.5,0.7-1.5,1.5s0.7,1.5,1.5,1.5h23c0.8,0,1.5-0.7,1.5-1.5S37.3,89,36.5,89z"/>
		</g>
	</g>
</g>
</svg>
