<?xml version="1.0" encoding="utf-8"?>
<!-- Generator: Adobe Illustrator 21.0.2, SVG Export Plug-In . SVG Version: 6.00 Build 0)  -->
<svg version="1.1" xmlns="http://www.w3.org/2000/svg" xmlns:xlink="http://www.w3.org/1999/xlink" x="0px" y="0px"
	 viewBox="0 0 46 92" style="enable-background:new 0 0 46 92;" xml:space="preserve">
<style type="text/css">
	.st-unavailable-0{enable-background:new    ;}
	.st-unavailable-1{fill-rule:evenodd;clip-rule:evenodd;fill:#D7D7D7;}
	.st-unavailable-2{fill-rule:evenodd;clip-rule:evenodd;fill:#EDEDED;}
	.st-unavailable-3{fill-rule:evenodd;clip-rule:evenodd;fill:#FFFFFF;}
	.st-unavailable-4{fill-rule:evenodd;clip-rule:evenodd;fill:#7E7E80;}
</style>
<g id="Rectangle_1_copy_113_15_" class="st-unavailable-0">
	<g id="Rectangle_1_copy_113">
		<g>
			<path class="st-unavailable-1" d="M36.6,0h-27c-3.9,0-7,3.1-7,7v78c0,3.9,3.1,7,7,7h27c3.9,0,7-3.1,7-7V7C43.6,3.1,40.4,0,36.6,0z"/>
		</g>
	</g>
</g>
<g id="Rectangle_1_copy_113_14_" class="st-unavailable-0">
	<g id="Rectangle_1_copy_113_1_">
		<g>
			<path class="st-unavailable-2" d="M2.5,39C1.1,39,0,40.1,0,41.5v22C0,64.9,1.1,66,2.5,66S5,64.9,5,63.5v-22C5,40.1,3.9,39,2.5,39z"/>
		</g>
	</g>
</g>
<g id="Rectangle_1_copy_113_13_" class="st-unavailable-0">
	<g id="Rectangle_1_copy_113_2_">
		<g>
			<path class="st-unavailable-2" d="M43.5,39c-1.4,0-2.5,1.1-2.5,2.5v22c0,1.4,1.1,2.5,2.5,2.5s2.5-1.1,2.5-2.5v-22C46,40.1,44.9,39,43.5,39z"/>
		</g>
	</g>
</g>
<g id="Rectangle_1_copy_113_12_" class="st-unavailable-0">
	<g id="Rectangle_1_copy_113_3_">
		<g>
			<path class="st-unavailable-3" d="M34.1,20h-23c-0.8,0-1.5,0.7-1.5,1.5s0.7,1.5,1.5,1.5h23c0.8,0,1.5-0.7,1.5-1.5S34.9,20,34.1,20z"/>
		</g>
	</g>
</g>
<g id="Rectangle_1_copy_113_11_" class="st-unavailable-0">
	<g id="Rectangle_1_copy_113_4_">
		<g>
			<path class="st-unavailable-3" d="M34.1,30h-23c-0.8,0-1.5,0.7-1.5,1.5s0.7,1.5,1.5,1.5h23c0.8,0,1.5-0.7,1.5-1.5S34.9,30,34.1,30z"/>
		</g>
	</g>
</g>
<g id="Rectangle_1_copy_113_10_" class="st-unavailable-0">
	<g id="Rectangle_1_copy_113_5_">
		<g>
			<path class="st-unavailable-3" d="M34.1,70h-23c-0.8,0-1.5,0.7-1.5,1.5s0.7,1.5,1.5,1.5h23c0.8,0,1.5-0.7,1.5-1.5S34.9,70,34.1,70z"/>
		</g>
	</g>
</g>
<g id="Rectangle_1_copy_113_9_" class="st-unavailable-0">
	<g id="Rectangle_1_copy_113_6_">
		<g>
			<path class="st-unavailable-3" d="M34.1,79h-23c-0.8,0-1.5,0.7-1.5,1.5s0.7,1.5,1.5,1.5h23c0.8,0,1.5-0.7,1.5-1.5S34.9,79,34.1,79z"/>
		</g>
	</g>
</g>
<g id="Rectangle_1_copy_113_8_" class="st-unavailable-0">
	<g id="Rectangle_1_copy_113_7_">
		<g>
			<path class="st-unavailable-3" d="M34.1,10h-23c-0.8,0-1.5,0.7-1.5,1.5s0.7,1.5,1.5,1.5h23c0.8,0,1.5-0.7,1.5-1.5S34.9,10,34.1,10z"/>
		</g>
	</g>
</g>
<g id="Shape_1_1_" class="st-unavailable-0">
	<g id="Shape_1">
		<g>
			<path class="st-unavailable-4" d="M23.1,41c-5.5,0-10,4.5-10,10c0,5.5,4.5,10,10,10s10-4.5,10-10C33.1,45.5,28.6,41,23.1,41z M23.1,59
				c-4.4,0-8-3.6-8-8c0-4.4,3.6-8,8-8c4.4,0,8,3.6,8,8C31.1,55.4,27.5,59,23.1,59z M20.3,46.6c-0.4-0.4-1-0.4-1.4,0
				c-0.4,0.4-0.4,1,0,1.4l7,7c0.2,0.2,0.5,0.3,0.7,0.3c0.3,0,0.5-0.1,0.7-0.3c0.4-0.4,0.4-1,0-1.4L20.3,46.6z"/>
		</g>
	</g>
</g>
</svg>
