<?xml version="1.0" encoding="utf-8"?>
<!-- Generator: Adobe Illustrator 21.0.2, SVG Export Plug-In . SVG Version: 6.00 Build 0)  -->
<svg version="1.1" id="Layer_1" xmlns="http://www.w3.org/2000/svg" xmlns:xlink="http://www.w3.org/1999/xlink" x="0px" y="0px"
	 viewBox="0 0 37 37" style="enable-background:new 0 0 37 37;" xml:space="preserve">
<defs> 
<linearGradient id="lgrad" x1="0%" y1="50%" x2="100%" y2="50%"> 
<stop offset="0%" style="stop-color:rgb(246,142,18);stop-opacity:1" />
<stop offset="100%" style="stop-color:rgb(246,177,35);stop-opacity:1" />
</linearGradient> 
</defs>
<g fill="url(#lgrad)">
	<g>
		<path d="M0.5,13.9C0.5,13.9,0.5,13.9,0.5,13.9c0-0.5,0.3-0.9,0.7-1L35,0.6c0.4-0.1,0.8,0,1.1,0.3c0.3,0.3,0.4,0.7,0.3,1.1
			L24.1,35.8c-0.2,0.4-0.6,0.7-1,0.7c-0.4,0-0.9-0.3-1-0.7l-6-15.2L1.2,15C0.8,14.8,0.5,14.4,0.5,13.9z M33.6,3.4L4.7,14l12.6,4.8
			c0.3,0.1,0.5,0.3,0.6,0.6l5.1,13L33.6,3.4z"/>
		<path d="M23.1,37c-0.6,0-1.2-0.4-1.5-1l-5.9-15L1,15.4c-0.6-0.2-1-0.8-1-1.5v0c0-0.7,0.4-1.3,1-1.5L34.9,0.1
			c0.6-0.2,1.2-0.1,1.7,0.4c0.4,0.4,0.6,1.1,0.4,1.7L24.5,36C24.3,36.6,23.7,37,23.1,37C23.1,37,23.1,37,23.1,37z M35.4,1
			c-0.1,0-0.1,0-0.2,0L1.4,13.4C1.2,13.5,1,13.7,1,13.9l-0.5,0H1c0,0.2,0.2,0.5,0.4,0.5l15.1,5.8l6.1,15.4c0.1,0.2,0.3,0.4,0.6,0.4
			c0.2,0,0.5-0.2,0.5-0.4L36,1.8c0.1-0.2,0-0.5-0.1-0.6C35.7,1.1,35.6,1,35.4,1z M23,33.8l-5.6-14.2c-0.1-0.2-0.2-0.3-0.3-0.3
			L3.3,14L34.4,2.6L23,33.8z M6.1,14l11.3,4.3c0.4,0.2,0.7,0.5,0.9,0.9L23,31l9.8-26.7L6.1,14z"/>
	</g>
</g>
</svg>
