<?xml version="1.0" encoding="utf-8"?>
<!-- Generator: Adobe Illustrator 21.0.2, SVG Export Plug-In . SVG Version: 6.00 Build 0)  -->
<svg version="1.1" id="Layer_1" xmlns="http://www.w3.org/2000/svg" xmlns:xlink="http://www.w3.org/1999/xlink" x="0px" y="0px"
	 viewBox="0 0 19.4 19.4" style="enable-background:new 0 0 19.4 19.4;" xml:space="preserve">
<style type="text/css">
	.st0{fill:#f6a41d;}
</style>
<g transform="translate(0,-952.36218)">
	<path class="st0" d="M9.7,971.8c-5.3,0-9.7-4.4-9.7-9.7s4.4-9.7,9.7-9.7s9.7,4.4,9.7,9.7S15,971.8,9.7,971.8z M9.7,953.8
		c-4.6,0-8.3,3.7-8.3,8.3c0,4.6,3.7,8.3,8.3,8.3s8.3-3.7,8.3-8.3C18,957.5,14.3,953.8,9.7,953.8z"/>
</g>
<path class="st0" d="M12.4,13.1c-0.2,0-0.4-0.1-0.5-0.2l-2.7-2.7C9.1,10.1,9,9.9,9,9.7V4.8c0-0.4,0.3-0.7,0.7-0.7s0.7,0.3,0.7,0.7
	v4.6l2.5,2.5c0.3,0.3,0.3,0.7,0,1C12.8,13,12.6,13.1,12.4,13.1z"/>
</svg>
