<?xml version="1.0" encoding="utf-8"?>
<!-- Generator: Adobe Illustrator 21.0.2, SVG Export Plug-In . SVG Version: 6.00 Build 0)  -->
<svg version="1.1" id="Layer_1" xmlns="http://www.w3.org/2000/svg" xmlns:xlink="http://www.w3.org/1999/xlink" x="0px" y="0px"
	 viewBox="0 0 24 24" style="enable-background:new 0 0 24 24;" xml:space="preserve">
<g>
	<path d="M1,24c0.1,0,0.2,0,0.3,0l6.9-2c0.4-0.1,0.7-0.3,1-0.6L23.3,7.2c0.4-0.4,0.7-1,0.7-1.6s-0.2-1.2-0.7-1.6L20,0.7
		c-0.9-0.9-2.4-0.9-3.3,0L2.6,14.9c-0.3,0.3-0.5,0.6-0.6,1l-2,6.9c-0.1,0.3,0,0.7,0.3,1C0.5,23.9,0.8,24,1,24z M14.5,5.8l3.7,3.7
		l-9.8,9.8l-3.7-3.7L14.5,5.8z M18.2,2c0.1-0.1,0.2-0.1,0.2-0.1c0.1,0,0.2,0,0.2,0.1L22,5.3c0.1,0.1,0.1,0.2,0.1,0.2
		c0,0,0,0.2-0.1,0.2l-2.4,2.4l-3.7-3.7L18.2,2z M3.7,17.4l3,3l-4.2,1.2L3.7,17.4z"/>
</g>
</svg>
