<?xml version="1.0" encoding="utf-8"?>
<!-- Generator: Adobe Illustrator 21.0.2, SVG Export Plug-In . SVG Version: 6.00 Build 0)  -->
<svg version="1.1" id="Layer_1" xmlns="http://www.w3.org/2000/svg" xmlns:xlink="http://www.w3.org/1999/xlink" x="0px" y="0px"
	 viewBox="0 0 58 52" style="enable-background:new 0 0 58 52;" xml:space="preserve">
<style type="text/css">
	.st0{fill:#26262a;}
</style>
<g transform="translate(0,-952.36218)">
	<path class="st0" d="M20,952.4c-0.8,0-1.5,0.6-1.8,1.1l-3.5,6.9h-8c-3.7,0-6.8,3.1-6.8,6.8v30.4c0,3.7,3.1,6.8,6.8,6.8h44.4
		c3.7,0,6.8-3.1,6.8-6.8v-30.4c0-3.7-3.1-6.8-6.8-6.8h-8l-3.5-6.9c-0.3-0.7-1-1.1-1.8-1.1H20z M21.2,956.4h15.6l3.4,6.9
		c0.3,0.7,1,1.1,1.8,1.1h9.2c1.6,0,2.8,1.2,2.8,2.8v30.4c0,1.6-1.2,2.8-2.8,2.8H6.8c-1.6,0-2.8-1.2-2.8-2.8v-30.4
		c0-1.6,1.2-2.8,2.8-2.8H16c0.7,0,1.5-0.5,1.8-1.1L21.2,956.4z M29,969.4c-7.2,0-13,5.8-13,13s5.8,13,13,13c7.2,0,13-5.8,13-13
		S36.2,969.4,29,969.4z M29,973.4c5,0,9,4,9,9s-4,9-9,9c-5,0-9-4-9-9S24,973.4,29,973.4z"/>
</g>
</svg>
