<?xml version="1.0" encoding="utf-8"?>
<!-- Generator: Adobe Illustrator 21.0.2, SVG Export Plug-In . SVG Version: 6.00 Build 0)  -->
<svg version="1.1" xmlns="http://www.w3.org/2000/svg" xmlns:xlink="http://www.w3.org/1999/xlink" x="0px" y="0px"
	 viewBox="0 0 78 152" style="enable-background:new 0 0 78 152;" xml:space="preserve">
<style type="text/css">
	.st-checked-0{opacity:0.102;enable-background:new    ;}
	.st-checked-1{fill-rule:evenodd;clip-rule:evenodd;fill:#F3F3F3;}
	.st-checked-2{fill:#EC682E;}
	.st-checked-3{enable-background:new    ;}
	.st-checked-4{fill-rule:evenodd;clip-rule:evenodd;fill:#FFFFFF;}
	.st-checked-5{fill-rule:evenodd;clip-rule:evenodd;fill:#FFCB75;}
	.st-checked-6{fill-rule:evenodd;clip-rule:evenodd;fill:#F5F1E9;}
</style>
<g id="Rectangle_1_copy_124_1_" class="st-checked-0">
	<g id="Rectangle_1_copy_124">
		<g>
			<path class="st-checked-1" d="M19,147c-7.7,0-14-6.3-14-14.1V19.1C5,11.3,11.3,5,19,5H59c7.7,0,14,6.3,14,14.1v113.9
				c0,7.8-6.3,14.1-14,14.1H19z"/>
		</g>
		<g>
			<path class="st-checked-2" d="M59,10c5,0,9,4.1,9,9.1v113.9c0,5-4,9.1-9,9.1H19c-5,0-9-4.1-9-9.1V19.1c0-5,4-9.1,9-9.1H59 M59,0H19
				C8.5,0,0,8.5,0,19.1v113.9C0,143.4,8.5,152,19,152H59c10.5,0,19-8.5,19-19.1V19.1C78,8.5,69.4,0,59,0L59,0z"/>
		</g>
	</g>
</g>
<g id="Rectangle_1_copy_125_1_" class="st-checked-3">
	<g id="Rectangle_1_copy_125">
		<g>
			<path class="st-checked-4" d="M19,143.5c-5.8,0-10.5-4.7-10.5-10.6V19.1c0-5.8,4.7-10.6,10.5-10.6H59c5.8,0,10.5,4.7,10.5,10.6v113.9
				c0,5.8-4.7,10.6-10.5,10.6H19z"/>
		</g>
		<g>
			<path class="st-checked-2" d="M59,10c5,0,9,4.1,9,9.1v113.9c0,5-4,9.1-9,9.1H19c-5,0-9-4.1-9-9.1V19.1c0-5,4-9.1,9-9.1H59 M59,7H19
				C12.4,7,7,12.4,7,19.1v113.9c0,6.6,5.4,12.1,12,12.1H59c6.6,0,12-5.4,12-12.1V19.1C71,12.4,65.6,7,59,7L59,7z"/>
		</g>
	</g>
</g>
<g id="Rectangle_1_copy_105_xA0_Image_1_">
</g>
<g id="Rectangle_1_copy_105_14_" class="st-checked-3">
	<g id="Rectangle_1_copy_105_1_">
		<g>
			<path class="st-checked-5" d="M9,57H7c-1.7,0-3,1.3-3,3v33c0,1.7,1.3,3,3,3h2c1.7,0,3-1.3,3-3V60C12,58.3,10.7,57,9,57z"/>
		</g>
	</g>
</g>
<g id="Rectangle_1_copy_105_13_" class="st-checked-3">
	<g id="Rectangle_1_copy_105_2_">
		<g>
			<path class="st-checked-5" d="M70,57h-2c-1.7,0-3,1.3-3,3v33c0,1.7,1.3,3,3,3h2c1.7,0,3-1.3,3-3V60C73,58.3,71.7,57,70,57z"/>
		</g>
	</g>
</g>
<g id="Rectangle_1_copy_105_12_" class="st-checked-3">
	<g id="Rectangle_1_copy_105_3_">
		<g>
			<path class="st-checked-6" d="M53.5,24h-30c-0.8,0-1.5,0.7-1.5,1.5v1c0,0.8,0.7,1.5,1.5,1.5h30c0.8,0,1.5-0.7,1.5-1.5v-1
				C55,24.7,54.3,24,53.5,24z"/>
		</g>
	</g>
</g>
<g id="Rectangle_1_copy_105_11_" class="st-checked-3">
	<g id="Rectangle_1_copy_105_4_">
		<g>
			<path class="st-checked-6" d="M53.5,40h-30c-0.8,0-1.5,0.7-1.5,1.5v1c0,0.8,0.7,1.5,1.5,1.5h30c0.8,0,1.5-0.7,1.5-1.5v-1
				C55,40.7,54.3,40,53.5,40z"/>
		</g>
	</g>
</g>
<g id="Rectangle_1_copy_105_10_" class="st-checked-3">
	<g id="Rectangle_1_copy_105_5_">
		<g>
			<path class="st-checked-6" d="M53.5,54h-30c-0.8,0-1.5,0.7-1.5,1.5v1c0,0.8,0.7,1.5,1.5,1.5h30c0.8,0,1.5-0.7,1.5-1.5v-1
				C55,54.7,54.3,54,53.5,54z"/>
		</g>
	</g>
</g>
<g id="Rectangle_1_copy_105_9_" class="st-checked-3">
	<g id="Rectangle_1_copy_105_6_">
		<g>
			<path class="st-checked-6" d="M53.5,106h-30c-0.8,0-1.5,0.7-1.5,1.5v1c0,0.8,0.7,1.5,1.5,1.5h30c0.8,0,1.5-0.7,1.5-1.5v-1
				C55,106.7,54.3,106,53.5,106z"/>
		</g>
	</g>
</g>
<g id="Rectangle_1_copy_105_8_" class="st-checked-3">
	<g id="Rectangle_1_copy_105_7_">
		<g>
			<path class="st-checked-6" d="M53.5,120h-30c-0.8,0-1.5,0.7-1.5,1.5v1c0,0.8,0.7,1.5,1.5,1.5h30c0.8,0,1.5-0.7,1.5-1.5v-1
				C55,120.7,54.3,120,53.5,120z"/>
		</g>
	</g>
</g>
</svg>
