<?xml version="1.0" encoding="utf-8"?>
<!-- Generator: Adobe Illustrator 21.0.2, SVG Export Plug-In . SVG Version: 6.00 Build 0)  -->
<svg version="1.1" id="Layer_1" xmlns="http://www.w3.org/2000/svg" xmlns:xlink="http://www.w3.org/1999/xlink" x="0px" y="0px"
	 viewBox="0 0 65 87" style="enable-background:new 0 0 65 87;" xml:space="preserve">
<style type="text/css">
	.st0{fill:#F3F3F3;stroke:#F1991B;stroke-width:4;}
	.st1{fill:#FFFFFF;stroke:#F1991B;stroke-width:4;}
	.st2{fill:#F1991B;}
</style>
<path class="st0" d="M7.8,9l23.8-2.6c3-0.3,5.6,1.9,5.9,4.9l6.1,58.2c0.3,3-1.8,5.7-4.8,6L15,78.1c-3,0.3-5.6-1.9-5.9-4.9L3,15
	C2.7,12,4.8,9.3,7.8,9z"/>
<path class="st1" d="M28.4,2l27.1,3.1c3.4,0.4,5.8,3.4,5.4,6.8l-7.6,65.6c-0.4,3.4-3.5,5.8-6.8,5.4l-27.1-3.1
	C16,79.5,13.6,76.4,14,73l7.6-65.6C22,4.1,25,1.6,28.4,2z"/>
<path class="st2" d="M33.5,14.2l14.4,1.6c1.8,0.2,3.2,0.5,3.2,0.7l-0.5,4c0,0.2-1.5,0.2-3.3-0.1L33,18.8c-1.8-0.2-3.2-0.5-3.2-0.7
	l0.5-4C30.2,14,31.7,14,33.5,14.2z"/>
<path class="st2" d="M32.4,23.4L46.8,25c1.8,0.2,3.2,0.5,3.2,0.7l-0.5,3.9c0,0.2-1.5,0.2-3.3-0.1l-14.4-1.6
	c-1.8-0.2-3.2-0.5-3.2-0.7l0.5-3.9C29.2,23.1,30.6,23.1,32.4,23.4z"/>
<path class="st2" d="M31.4,32.5l14.4,1.6c1.8,0.2,3.2,0.5,3.2,0.7l-0.5,3.9c0,0.2-1.5,0.1-3.3-0.1l-14.4-1.6
	c-1.8-0.2-3.2-0.5-3.2-0.7l0.5-4C28.1,32.3,29.6,32.3,31.4,32.5z"/>
<path class="st2" d="M28.7,55.4L43.1,57c1.8,0.2,3.2,0.5,3.2,0.7l-0.5,3.9c0,0.2-1.5,0.1-3.3-0.1L28.2,60c-1.8-0.2-3.2-0.5-3.2-0.7
	l0.5-3.9C25.4,55.2,26.9,55.2,28.7,55.4z"/>
<path class="st2" d="M27.6,64.6L42,66.2c1.8,0.2,3.2,0.5,3.2,0.7l-0.5,3.9c0,0.2-1.5,0.1-3.3-0.1l-14.4-1.6
	c-1.8-0.2-3.2-0.5-3.2-0.7l0.5-3.9C24.4,64.3,25.8,64.3,27.6,64.6z"/>
</svg>
